<svg xmlns="http://www.w3.org/2000/svg" viewBox="0 0 1053.19 300"><defs><style>.cls-1,.cls-2{fill:#fff;}.cls-2{stroke:#fff;stroke-miterlimit:10;stroke-width:7.34px;}</style></defs><title>bp-logo-white</title><g id="Logo"><g id="Tubes"><polygon class="cls-1" points="200 25 348.6 25 342.89 34.92 342.04 64.46 345.39 79.83 348.6 85 301.09 85 262.51 48.6 235.6 33.23 200 25"/><path class="cls-1" d="M348.6,26.7c.5,0,2.2,1.4,3.8,7.5A88.41,88.41,0,0,1,354.6,55a88.41,88.41,0,0,1-2.2,20.8c-1.6,6.2-3.3,7.5-3.8,7.5s-2.2-1.4-3.8-7.5A88.41,88.41,0,0,1,342.6,55a88.41,88.41,0,0,1,2.2-20.8c1.5-6.2,3.3-7.5,3.8-7.5m0-1.7c-4.2,0-7.7,13.4-7.7,30s3.4,30,7.7,30,7.7-13.4,7.7-30-3.5-30-7.7-30Z"/><polygon class="cls-1" points="51.4 215 108.69 215 146.5 258 200 268.38 200 275 51.4 275 51.4 215"/><path class="cls-1" d="M51.4,274.2c-3.2,0-6.8-12-6.8-29.2s3.6-29.2,6.8-29.2,6.8,12,6.8,29.2S54.7,274.2,51.4,274.2Z"/><path class="cls-1" d="M51.4,216.7c.5,0,2.2,1.4,3.8,7.5A88.41,88.41,0,0,1,57.4,245a88.41,88.41,0,0,1-2.2,20.8c-1.6,6.2-3.3,7.5-3.8,7.5s-2.2-1.4-3.8-7.5a99.43,99.43,0,0,1,0-41.6c1.6-6.2,3.3-7.5,3.8-7.5m0-1.7c-4.2,0-7.7,13.4-7.7,30s3.4,30,7.7,30,7.7-13.4,7.7-30-3.4-30-7.7-30Z"/></g><g id="Swirl"><path class="cls-1" d="M91.8,152.9c23-75,100-58.2,97.9-40.3-1.4,12.3-48,4.6-55.6,50-6,35.7,18.9,85.2,101.5,78.6-57.1,10.7-96.9-11.2-108.7-49.5-17.3-65.8,37.8-72.9,34.7-83.7C158.2,96.8,109.2,107,91.8,152.9Z"/><path class="cls-1" d="M200,25A125,125,0,1,0,325,150,125,125,0,0,0,200,25Zm55.2,86.6c17.3,65.8-37.8,72.9-34.7,83.7,3.5,11.2,52.5,1,69.8-44.9-23,75-100,58.2-97.9,40.3,1.4-12.3,48-4.6,55.6-50,6-35.7-18.9-85.2-101.5-78.6C203.6,51.4,243.4,73.3,255.2,111.6ZM207.5,260.8c-64.2,0-107.8-50.6-107.8-91.3,0-27.5-14.5-8-10,35.2C65.1,51.7,236.9,71.6,220.6,140c-10,42.1-48.2,6.2-58.2,33.6-8.5,23.6,15,48.1,48.6,48.1,67.2,0,159-126.9,1-191.1C378,78.7,312.3,260.8,207.5,260.8Z"/></g><g id="Barroso_Pumps" data-name="Barroso Pumps"><g id="Pumps"><path class="cls-1" d="M435.4,180a17.12,17.12,0,0,0-9.9-2.7h-20v30.6H426c5.1-.1,9-1.7,11.6-4.9a16.17,16.17,0,0,0,3.7-10.4,19,19,0,0,0-1.5-8A11.45,11.45,0,0,0,435.4,180Z"/><path class="cls-1" d="M373.2,146.9v128H985.1v-128Zm74.7,65c-4.9,6-12,9.1-21.4,9.3h-21V258H391.7V164h33a51,51,0,0,1,10.4,1,28.94,28.94,0,0,1,10.1,5.5,22.28,22.28,0,0,1,7,9,29.72,29.72,0,0,1,2.8,13.4A29.13,29.13,0,0,1,447.9,211.9Zm128.9,14.3c-.2,9.9-3.3,17.7-9.3,23.6s-13.8,9-23.1,9.1c-9.1-.1-16.8-3.1-22.9-9.1-6.3-5.8-9.4-13.6-9.5-23.5V164h13.8v60.7q.15,9.6,5.4,14.7a17.63,17.63,0,0,0,13.2,5.3,18,18,0,0,0,13.3-5.3c3.4-3.4,5.2-8.2,5.3-14.7V164h13.8ZM718.3,258H704.5V199.3h-.3l-19.1,45.2H673.6l-19.1-45.2h-.3V258H640.4V164h13.2l26.1,61.3L705.3,164h13Zm122.2-46.1c-4.9,6-12,9.1-21.4,9.3h-21V258H784.3V164h33a51,51,0,0,1,10.4,1,28.94,28.94,0,0,1,10.1,5.5,22.28,22.28,0,0,1,7,9,29.72,29.72,0,0,1,2.8,13.4A29.13,29.13,0,0,1,840.5,211.9Zm92.5,47c-13.5,0-25.1-4.3-34.8-12.8l9.2-10.9a39.27,39.27,0,0,0,25.9,9.4c11.8-.2,17.8-4.5,18-13.1.1-7-3.9-11.2-11.9-12.7-3.7-.5-7.7-1.1-12.1-1.7-7.8-1.3-13.8-4.3-17.9-9a25.51,25.51,0,0,1-6.3-17.4c0-8.2,2.6-14.9,7.9-19.9,5.1-5,12.4-7.5,21.8-7.6,11.3.3,21.2,3.5,29.5,9.7l-7.7,11.7a39.91,39.91,0,0,0-22.6-7.2,16.57,16.57,0,0,0-10.6,3.3c-3,2.3-4.5,5.7-4.6,10.2a10.46,10.46,0,0,0,3.1,7.4c2,2.2,5.3,3.8,9.8,4.6,2.5.4,5.9.9,10.3,1.5,8.5,1.2,14.9,4.4,18.9,9.5a27.48,27.48,0,0,1,6.1,17.6C964.5,249.5,953.9,258.6,933,258.9Z"/><path class="cls-1" d="M828,180a17.12,17.12,0,0,0-9.9-2.7h-20v30.6h20.5c5.1-.1,9-1.7,11.6-4.9a16.17,16.17,0,0,0,3.7-10.4,19,19,0,0,0-1.5-8A11.45,11.45,0,0,0,828,180Z"/></g><g id="Barroso"><path class="cls-2" d="M377.2,27.2h39.2c10,.1,17.4,2.7,22.4,7.7s7.6,11.9,7.6,20.3a24.35,24.35,0,0,1-3,12.3,20.36,20.36,0,0,1-4.6,5.3,29.56,29.56,0,0,1-7.4,4.8V78a20.45,20.45,0,0,1,12.5,9,30.43,30.43,0,0,1,4,15.1c-.1,9-2.8,16.2-8.2,21.4a26.55,26.55,0,0,1-19.9,8.2H377.1V27.2Zm15.3,14.1V71.4h22.2c5.6,0,9.7-1.5,12.4-4.5a14.49,14.49,0,0,0,4-10.5,15.13,15.13,0,0,0-4-10.7c-2.6-2.7-6.8-4.2-12.4-4.3H392.5Zm0,44.1v31.5h23.7c5.7-.1,9.9-1.7,12.5-4.8a16.46,16.46,0,0,0,4-10.9,16.3,16.3,0,0,0-4-11.1c-2.6-3-6.8-4.6-12.5-4.7Z"/><path class="cls-2" d="M518.6,108.4H480.2l-7.8,23.4H456.1L493,27.2h12.8l36.8,104.5H526.4Zm-4.3-14.1L499.6,48.6h-.3L484.6,94.3Z"/><path class="cls-2" d="M558.3,27.2h39.6c8.4,0,15.3,2.3,20.6,6.9,6.4,5.2,9.8,12.6,10,22.3-.2,14.2-6.7,23.9-19.6,29l23.4,46.4H614.1l-21-44.7H573.5v44.7H558.2V27.2ZM573.6,73h23.3c5.8-.1,10.1-1.8,12.9-5.2A16.47,16.47,0,0,0,614,56.3c-.1-5.5-1.8-9.4-5.1-11.9-2.6-2.2-6.4-3.2-11.3-3.2H573.5V73Z"/><path class="cls-2" d="M649.8,27.2h39.6c8.4,0,15.3,2.3,20.6,6.9,6.4,5.2,9.8,12.6,10,22.3-.2,14.2-6.7,23.9-19.6,29l23.4,46.4H705.6l-21-44.7H665v44.7H649.7V27.2ZM665.1,73h23.3c5.8-.1,10.1-1.8,13-5.2a16.47,16.47,0,0,0,4.2-11.5c-.1-5.5-1.8-9.4-5.1-11.9-2.6-2.2-6.4-3.2-11.3-3.2H665.1V73Z"/><path class="cls-2" d="M735.9,79.5c0-12.2.3-20.3,1-24.4a30,30,0,0,1,3.4-10,36.63,36.63,0,0,1,11.8-12.9c5.3-3.8,12-5.8,19.9-5.9,8.1.1,14.8,2.1,20.1,5.9s9.2,8.1,11.5,12.9a24,24,0,0,1,3.5,10c.6,4.1.9,12.2.9,24.4,0,12-.3,20-.9,24.2a24,24,0,0,1-3.5,10.1,34.59,34.59,0,0,1-11.5,12.8q-8.1,5.7-20.1,6c-8-.2-14.6-2.2-19.9-6a34.78,34.78,0,0,1-11.8-12.8c-.7-1.6-1.4-3.1-2-4.5a28.44,28.44,0,0,1-1.4-5.6C736.2,99.5,735.9,91.4,735.9,79.5Zm15.3,0c0,10.3.4,17.3,1.1,20.9a17.94,17.94,0,0,0,4,8.8,20.93,20.93,0,0,0,15.7,7.6,18.12,18.12,0,0,0,9.5-2.4,16.43,16.43,0,0,0,6.1-5.2,18.47,18.47,0,0,0,4.1-8.8c.7-3.6,1-10.6,1-20.9s-.4-17.3-1-21.1a18.56,18.56,0,0,0-4.1-8.7,17.76,17.76,0,0,0-6.1-5.4,21.8,21.8,0,0,0-9.5-2.2,20.58,20.58,0,0,0-9.3,2.2,18.83,18.83,0,0,0-6.4,5.4,18.45,18.45,0,0,0-4,8.7C751.6,62.2,751.2,69.2,751.2,79.5Z"/><path class="cls-2" d="M830.1,106.4c8.1,6.9,17.7,10.3,28.8,10.4,13.2-.2,19.8-5,20-14.6q.15-11.7-13.2-14.1c-4.1-.6-8.5-1.2-13.4-1.9-8.7-1.5-15.3-4.8-19.9-10s-7-11.8-7-19.4c0-9.1,2.9-16.5,8.8-22.1,5.7-5.5,13.8-8.4,24.2-8.5,12.6.3,23.5,3.9,32.8,10.8l-8.5,13a45.41,45.41,0,0,0-25.1-8.1c-4.7,0-8.7,1.2-11.8,3.7-3.3,2.5-5,6.3-5.1,11.3a11.76,11.76,0,0,0,3.4,8.2c2.3,2.5,5.9,4.2,10.9,5.2,2.8.5,6.6,1,11.4,1.6,9.5,1.3,16.5,4.9,21,10.5a30.18,30.18,0,0,1,6.7,19.5c-.5,20-12.4,30.1-35.5,30.4-15,0-27.9-4.8-38.7-14.3Z"/><path class="cls-2" d="M909.2,79.5c0-12.2.3-20.3,1-24.4a30,30,0,0,1,3.4-10,36.63,36.63,0,0,1,11.8-12.9c5.3-3.8,12-5.8,19.9-5.9,8.1.1,14.8,2.1,20.1,5.9s9.2,8.1,11.5,12.9a24,24,0,0,1,3.5,10c.6,4.1.9,12.2.9,24.4,0,12-.3,20-.9,24.2a24,24,0,0,1-3.5,10.1,34.59,34.59,0,0,1-11.5,12.8q-8.1,5.7-20.1,6c-8-.2-14.6-2.2-19.9-6a34.78,34.78,0,0,1-11.8-12.8c-.7-1.6-1.4-3.1-2-4.5a28.44,28.44,0,0,1-1.4-5.6C909.5,99.5,909.2,91.4,909.2,79.5Zm15.3,0c0,10.3.4,17.3,1.1,20.9a17.94,17.94,0,0,0,4,8.8,20.93,20.93,0,0,0,15.7,7.6,18.12,18.12,0,0,0,9.5-2.4,16.43,16.43,0,0,0,6.1-5.2,18.47,18.47,0,0,0,4.1-8.8c.7-3.6,1-10.6,1-20.9s-.4-17.3-1-21.1a18.56,18.56,0,0,0-4.1-8.7,17.76,17.76,0,0,0-6.1-5.4,21.8,21.8,0,0,0-9.5-2.2,20.58,20.58,0,0,0-9.3,2.2,18.83,18.83,0,0,0-6.4,5.4,18.45,18.45,0,0,0-4,8.7C924.9,62.2,924.5,69.2,924.5,79.5Z"/></g></g></g></svg>